<?xml version="1.0" encoding="UTF-8" standalone="no"?>
<!DOCTYPE svg PUBLIC "-//W3C//DTD SVG 1.1//EN"
 "http://www.w3.org/Graphics/SVG/1.1/DTD/svg11.dtd">
<!-- Generated by graphviz version 2.40.1 (20161225.0304)
 -->
<!-- Title: dependencies Pages: 1 -->
<svg width="1452pt" height="284pt"
 viewBox="0.00 0.00 1452.00 284.00" xmlns="http://www.w3.org/2000/svg" xmlns:xlink="http://www.w3.org/1999/xlink">
<g id="graph0" class="graph" transform="scale(1 1) rotate(0) translate(4 280)">
<title>dependencies</title>
<polygon fill="#ffffff" stroke="transparent" points="-4,4 -4,-280 1448,-280 1448,4 -4,4"/>
<text text-anchor="start" x="701.0091" y="-42.4" font-family="sans-serif" font-weight="bold" font-size="14.00" fill="#000000">Legend</text>
<polygon fill="#ffffb3" stroke="transparent" points="488,-10 488,-30 508,-30 508,-10 488,-10"/>
<text text-anchor="start" x="511.629" y="-15.4" font-family="sans-serif" font-size="14.00" fill="#000000"> &#160;Declarations</text>
<polygon fill="#8dd3c7" stroke="transparent" points="601,-10 601,-30 621,-30 621,-10 601,-10"/>
<text text-anchor="start" x="624.7251" y="-15.4" font-family="sans-serif" font-size="14.00" fill="#000000"> &#160;Module</text>
<polygon fill="#80b1d3" stroke="transparent" points="687,-10 687,-30 707,-30 707,-10 687,-10"/>
<text text-anchor="start" x="710.7812" y="-15.4" font-family="sans-serif" font-size="14.00" fill="#000000"> &#160;Bootstrap</text>
<polygon fill="#fdb462" stroke="transparent" points="784,-10 784,-30 804,-30 804,-10 784,-10"/>
<text text-anchor="start" x="807.6732" y="-15.4" font-family="sans-serif" font-size="14.00" fill="#000000"> &#160;Providers</text>
<polygon fill="#fb8072" stroke="transparent" points="880,-10 880,-30 900,-30 900,-10 880,-10"/>
<text text-anchor="start" x="903.7258" y="-15.4" font-family="sans-serif" font-size="14.00" fill="#000000"> &#160;Exports</text>
<g id="clust1" class="cluster">
<title>cluster_AppModule</title>
<polygon fill="none" stroke="#000000" stroke-dasharray="1,5" points="8,-70 8,-268 1436,-268 1436,-70 8,-70"/>
</g>
<g id="clust2" class="cluster">
<title>cluster_AppModule_declarations</title>
<polygon fill="none" stroke="#000000" points="172,-78 172,-130 1428,-130 1428,-78 172,-78"/>
</g>
<g id="clust12" class="cluster">
<title>cluster_AppModule_bootstrap</title>
<polygon fill="none" stroke="#000000" points="727,-208 727,-260 851,-260 851,-208 727,-208"/>
</g>
<g id="clust13" class="cluster">
<title>cluster_AppModule_providers</title>
<polygon fill="none" stroke="#000000" points="16,-78 16,-130 164,-130 164,-78 16,-78"/>
</g>
<!-- AppComponent -->
<g id="node1" class="node">
<title>AppComponent</title>
<polygon fill="#ffffb3" stroke="#000000" points="1419.9399,-122 1314.0601,-122 1314.0601,-86 1419.9399,-86 1419.9399,-122"/>
<text text-anchor="middle" x="1367" y="-99.8" font-family="Times,serif" font-size="14.00" fill="#000000">AppComponent</text>
</g>
<!-- AppModule -->
<g id="node8" class="node">
<title>AppModule</title>
<polygon fill="#8dd3c7" stroke="#000000" points="830.6571,-187 827.6571,-191 806.6571,-191 803.6571,-187 747.3429,-187 747.3429,-151 830.6571,-151 830.6571,-187"/>
<text text-anchor="middle" x="789" y="-164.8" font-family="Times,serif" font-size="14.00" fill="#000000">AppModule</text>
</g>
<!-- AppComponent&#45;&gt;AppModule -->
<g id="edge1" class="edge">
<title>AppComponent&#45;&gt;AppModule</title>
<path fill="none" stroke="#000000" d="M1367,-122.2921C1367,-144.2057 1367,-178 1367,-178 1367,-178 841.0339,-178 841.0339,-178"/>
<polygon fill="#000000" stroke="#000000" points="841.034,-174.5001 831.0339,-178 841.0339,-181.5001 841.034,-174.5001"/>
</g>
<!-- CityComponent -->
<g id="node2" class="node">
<title>CityComponent</title>
<polygon fill="#ffffb3" stroke="#000000" points="1296.9512,-122 1191.0488,-122 1191.0488,-86 1296.9512,-86 1296.9512,-122"/>
<text text-anchor="middle" x="1244" y="-99.8" font-family="Times,serif" font-size="14.00" fill="#000000">CityComponent</text>
</g>
<!-- CityComponent&#45;&gt;AppModule -->
<g id="edge2" class="edge">
<title>CityComponent&#45;&gt;AppModule</title>
<path fill="none" stroke="#000000" d="M1244,-122.1061C1244,-141.3391 1244,-169 1244,-169 1244,-169 840.9897,-169 840.9897,-169"/>
<polygon fill="#000000" stroke="#000000" points="840.9898,-165.5001 830.9897,-169 840.9897,-172.5001 840.9898,-165.5001"/>
</g>
<!-- CityDashboardWidgetComponent -->
<g id="node3" class="node">
<title>CityDashboardWidgetComponent</title>
<polygon fill="#ffffb3" stroke="#000000" points="1173.8018,-122 966.1982,-122 966.1982,-86 1173.8018,-86 1173.8018,-122"/>
<text text-anchor="middle" x="1070" y="-99.8" font-family="Times,serif" font-size="14.00" fill="#000000">CityDashboardWidgetComponent</text>
</g>
<!-- CityDashboardWidgetComponent&#45;&gt;AppModule -->
<g id="edge3" class="edge">
<title>CityDashboardWidgetComponent&#45;&gt;AppModule</title>
<path fill="none" stroke="#000000" d="M1070,-122.027C1070,-138.3976 1070,-160 1070,-160 1070,-160 840.7651,-160 840.7651,-160"/>
<polygon fill="#000000" stroke="#000000" points="840.7652,-156.5001 830.7651,-160 840.7651,-163.5001 840.7652,-156.5001"/>
</g>
<!-- CountryComponent -->
<g id="node4" class="node">
<title>CountryComponent</title>
<polygon fill="#ffffb3" stroke="#000000" points="948.7204,-122 821.2796,-122 821.2796,-86 948.7204,-86 948.7204,-122"/>
<text text-anchor="middle" x="885" y="-99.8" font-family="Times,serif" font-size="14.00" fill="#000000">CountryComponent</text>
</g>
<!-- CountryComponent&#45;&gt;AppModule -->
<g id="edge4" class="edge">
<title>CountryComponent&#45;&gt;AppModule</title>
<path fill="none" stroke="#000000" d="M826.1091,-122.1061C826.1091,-122.1061 826.1091,-140.991 826.1091,-140.991"/>
<polygon fill="#000000" stroke="#000000" points="822.6091,-140.9909 826.1091,-150.991 829.6091,-140.991 822.6091,-140.9909"/>
</g>
<!-- MinMaxWeatherWidgetComponent -->
<g id="node5" class="node">
<title>MinMaxWeatherWidgetComponent</title>
<polygon fill="#ffffb3" stroke="#000000" points="803.4468,-122 584.5532,-122 584.5532,-86 803.4468,-86 803.4468,-122"/>
<text text-anchor="middle" x="694" y="-99.8" font-family="Times,serif" font-size="14.00" fill="#000000">MinMaxWeatherWidgetComponent</text>
</g>
<!-- MinMaxWeatherWidgetComponent&#45;&gt;AppModule -->
<g id="edge5" class="edge">
<title>MinMaxWeatherWidgetComponent&#45;&gt;AppModule</title>
<path fill="none" stroke="#000000" d="M775.3226,-122.1061C775.3226,-122.1061 775.3226,-140.991 775.3226,-140.991"/>
<polygon fill="#000000" stroke="#000000" points="771.8227,-140.9909 775.3226,-150.991 778.8227,-140.991 771.8227,-140.9909"/>
</g>
<!-- VisualizeD3WeatherComponent -->
<g id="node6" class="node">
<title>VisualizeD3WeatherComponent</title>
<polygon fill="#ffffb3" stroke="#000000" points="566.2156,-122 367.7844,-122 367.7844,-86 566.2156,-86 566.2156,-122"/>
<text text-anchor="middle" x="467" y="-99.8" font-family="Times,serif" font-size="14.00" fill="#000000">VisualizeD3WeatherComponent</text>
</g>
<!-- VisualizeD3WeatherComponent&#45;&gt;AppModule -->
<g id="edge6" class="edge">
<title>VisualizeD3WeatherComponent&#45;&gt;AppModule</title>
<path fill="none" stroke="#000000" d="M467,-122.027C467,-138.3976 467,-160 467,-160 467,-160 737.2342,-160 737.2342,-160"/>
<polygon fill="#000000" stroke="#000000" points="737.2343,-163.5001 747.2342,-160 737.2342,-156.5001 737.2343,-163.5001"/>
</g>
<!-- WeatherWidgetComponent -->
<g id="node7" class="node">
<title>WeatherWidgetComponent</title>
<polygon fill="#ffffb3" stroke="#000000" points="349.9524,-122 180.0476,-122 180.0476,-86 349.9524,-86 349.9524,-122"/>
<text text-anchor="middle" x="265" y="-99.8" font-family="Times,serif" font-size="14.00" fill="#000000">WeatherWidgetComponent</text>
</g>
<!-- WeatherWidgetComponent&#45;&gt;AppModule -->
<g id="edge7" class="edge">
<title>WeatherWidgetComponent&#45;&gt;AppModule</title>
<path fill="none" stroke="#000000" d="M265,-122.1061C265,-141.3391 265,-169 265,-169 265,-169 737.0047,-169 737.0047,-169"/>
<polygon fill="#000000" stroke="#000000" points="737.0047,-172.5001 747.0047,-169 737.0046,-165.5001 737.0047,-172.5001"/>
</g>
<!-- AppComponent  -->
<g id="node9" class="node">
<title>AppComponent </title>
<polygon fill="#80b1d3" stroke="#000000" points="843.439,-252 734.561,-252 734.561,-216 843.439,-216 843.439,-252"/>
<text text-anchor="middle" x="789" y="-229.8" font-family="Times,serif" font-size="14.00" fill="#000000">AppComponent </text>
</g>
<!-- AppModule&#45;&gt;AppComponent  -->
<g id="edge8" class="edge">
<title>AppModule&#45;&gt;AppComponent </title>
<path fill="none" stroke="#000000" stroke-dasharray="1,5" d="M789,-187.1061C789,-187.1061 789,-205.991 789,-205.991"/>
<polygon fill="#000000" stroke="#000000" points="785.5001,-205.9909 789,-215.991 792.5001,-205.991 785.5001,-205.9909"/>
</g>
<!-- HelperService -->
<g id="node10" class="node">
<title>HelperService</title>
<ellipse fill="#fdb462" stroke="#000000" cx="90" cy="-104" rx="66.0281" ry="18"/>
<text text-anchor="middle" x="90" y="-99.8" font-family="Times,serif" font-size="14.00" fill="#000000">HelperService</text>
</g>
<!-- HelperService&#45;&gt;AppModule -->
<g id="edge9" class="edge">
<title>HelperService&#45;&gt;AppModule</title>
<path fill="none" stroke="#000000" d="M90,-122.2921C90,-144.2057 90,-178 90,-178 90,-178 737.1085,-178 737.1085,-178"/>
<polygon fill="#000000" stroke="#000000" points="737.1085,-181.5001 747.1085,-178 737.1084,-174.5001 737.1085,-181.5001"/>
</g>
</g>
</svg>
